<svg xmlns="http://www.w3.org/2000/svg" width="73" height="73" viewBox="0 0 73 73" fill="none"><circle cx="36.5" cy="36.5" r="36.5" fill="#3070A0"></circle><path d="M34.5279 28.86C33.7425 28.86 32.9825 29.012 32.2479 29.316C31.5385 29.5947 30.7912 30.0633 30.0059 30.722L27.7259 27.226C28.6632 26.466 29.7272 25.8453 30.9179 25.364C32.1085 24.8573 33.5905 24.604 35.3639 24.604C36.5292 24.604 37.5805 24.7813 38.5179 25.136C39.4806 25.4907 40.2912 25.9847 40.9499 26.618C41.6085 27.226 42.1152 27.9607 42.4699 28.822C42.8499 29.6833 43.0399 30.6207 43.0399 31.634C43.0399 33.23 42.4826 34.9273 41.3679 36.726C40.2786 38.5247 38.6572 40.4247 36.5039 42.426L34.0719 44.706H43.2299V49H28.4479L27.4599 45.314L30.9559 41.818C32.1972 40.5767 33.2232 39.5 34.0339 38.588C34.8445 37.6507 35.4905 36.8147 35.9719 36.08C36.4785 35.32 36.8332 34.6233 37.0359 33.99C37.2385 33.3567 37.3399 32.736 37.3399 32.128C37.3399 30.988 37.0612 30.1647 36.5039 29.658C35.9465 29.126 35.2879 28.86 34.5279 28.86Z" fill="white"></path></svg>