<svg xmlns="http://www.w3.org/2000/svg" width="73" height="73" viewBox="0 0 73 73" fill="none"><circle cx="36.5" cy="36.5" r="36.5" fill="#3070A0"></circle><path d="M29.2683 26.314C30.155 25.7567 31.1177 25.3387 32.1563 25.06C33.195 24.756 34.4363 24.604 35.8803 24.604C37.071 24.604 38.1477 24.7687 39.1103 25.098C40.073 25.4273 40.8963 25.8833 41.5803 26.466C42.2643 27.0487 42.7837 27.7327 43.1383 28.518C43.5183 29.278 43.7083 30.1013 43.7083 30.988C43.7083 31.7227 43.5943 32.394 43.3663 33.002C43.1637 33.5847 42.885 34.1167 42.5303 34.598C42.1757 35.054 41.745 35.4593 41.2383 35.814C40.757 36.1433 40.2503 36.422 39.7183 36.65C41.1623 36.954 42.3277 37.6253 43.2143 38.664C44.101 39.6773 44.5443 40.906 44.5443 42.35C44.5443 43.5407 44.3163 44.5793 43.8603 45.466C43.4297 46.3527 42.809 47.0873 41.9983 47.67C41.213 48.2527 40.263 48.696 39.1483 49C38.059 49.2787 36.8557 49.418 35.5383 49.418C34.1703 49.418 32.9037 49.2787 31.7383 49C30.573 48.7467 29.547 48.3793 28.6603 47.898L29.8383 43.984C30.5983 44.3387 31.3457 44.63 32.0803 44.858C32.8403 45.086 33.6637 45.2 34.5503 45.2C35.893 45.2 36.9317 44.934 37.6663 44.402C38.401 43.87 38.7683 43.148 38.7683 42.236C38.7683 41.324 38.4263 40.5767 37.7423 39.994C37.0583 39.386 35.9817 39.082 34.5123 39.082H31.8143V34.978H33.7143C35.1077 34.978 36.1717 34.6867 36.9063 34.104C37.641 33.5213 38.0083 32.7107 38.0083 31.672C38.0083 30.7093 37.6917 29.9873 37.0583 29.506C36.425 29.0247 35.665 28.784 34.7783 28.784C33.4863 28.784 32.2323 29.202 31.0163 30.038L29.2683 26.314Z" fill="white"></path></svg>