<svg width="82" height="51" viewBox="0 0 82 51" fill="none" xmlns="http://www.w3.org/2000/svg">
<g clip-path="url(#clip0_122_193)">
<g opacity="0.8">
<path opacity="0.3" d="M13.1901 50.78C11.6801 50.78 10.1501 50.52 8.68011 49.98C2.73011 47.82 -0.849887 41.71 0.170113 35.47C0.220113 35.15 0.280113 34.87 0.350113 34.58L6.07011 10.88L6.20011 10.93C8.67011 4.42 14.9701 0 22.0501 0H59.8201C66.8501 0 73.1101 4.36 75.6201 10.8L75.7601 10.73L81.5101 34.58C81.5801 34.87 81.6301 35.15 81.6801 35.43V35.47C82.7101 41.72 79.1301 47.82 73.1801 49.99C68.3301 51.76 62.9401 50.52 59.3501 46.93L59.2301 47.02L58.2701 45.81L52.0101 37.22H29.8701L22.7001 47.07L22.5201 46.93C20.0201 49.43 16.6501 50.79 13.2001 50.79L13.1901 50.78ZM8.48011 13.66L3.27011 35.28C3.22011 35.49 3.18011 35.7 3.14011 35.92C2.34011 40.78 5.11011 45.49 9.70011 47.17C13.8201 48.67 18.4101 47.38 21.1501 43.95L22.0701 42.8L28.3301 34.21H53.5401L60.2501 43.42L60.7001 43.94C63.4301 47.36 68.0301 48.65 72.1501 47.16C76.7501 45.49 79.5101 40.77 78.7201 35.95V35.92C78.6801 35.7 78.6301 35.48 78.5801 35.26L73.2801 13.3C71.6401 7.23 66.1001 2.99 59.8101 2.99H22.0501C15.7601 2.99 10.2201 7.23 8.58011 13.3L8.49011 13.65L8.48011 13.66Z" fill="white"/>
<path opacity="0.3" d="M62.6402 14.48C62.6402 16.12 61.3102 17.44 59.6802 17.44C58.0502 17.44 56.7202 16.11 56.7202 14.48C56.7202 12.85 58.0502 11.52 59.6802 11.52C61.3102 11.52 62.6402 12.85 62.6402 14.48Z" fill="white"/>
<path opacity="0.3" d="M62.6402 25.39C62.6402 27.03 61.3102 28.35 59.6802 28.35C58.0502 28.35 56.7202 27.02 56.7202 25.39C56.7202 23.76 58.0502 22.43 59.6802 22.43C61.3102 22.43 62.6402 23.76 62.6402 25.39Z" fill="white"/>
<path opacity="0.3" d="M54.22 16.97C55.86 16.97 57.18 18.3 57.18 19.93C57.18 21.56 55.85 22.89 54.22 22.89C52.59 22.89 51.26 21.56 51.26 19.93C51.26 18.3 52.59 16.97 54.22 16.97Z" fill="white"/>
<path opacity="0.3" d="M65.1302 16.97C66.7702 16.97 68.0902 18.3 68.0902 19.93C68.0902 21.56 66.7602 22.89 65.1302 22.89C63.5002 22.89 62.1702 21.56 62.1702 19.93C62.1702 18.3 63.5002 16.97 65.1302 16.97Z" fill="white"/>
<path opacity="0.3" d="M28.2501 17.67H25.1801V14.6C25.1801 13.36 24.1701 12.35 22.9301 12.35C21.6901 12.35 20.6801 13.36 20.6801 14.6V17.67H17.6101C16.3701 17.67 15.3601 18.68 15.3601 19.92C15.3601 21.16 16.3701 22.17 17.6101 22.17H20.6801V25.25C20.6801 26.49 21.6901 27.5 22.9301 27.5C24.1701 27.5 25.1801 26.49 25.1801 25.25V22.17H28.2501C29.4901 22.17 30.5001 21.16 30.5001 19.92C30.5001 18.68 29.4901 17.67 28.2501 17.67Z" fill="white"/>
</g>
</g>
<defs>
<clipPath id="clip0_122_193">
<rect width="81.87" height="50.78" fill="white"/>
</clipPath>
</defs>
</svg>
