<svg width="57" height="102" viewBox="0 0 57 102" fill="none" xmlns="http://www.w3.org/2000/svg">
<g clip-path="url(#clip0_122_177)">
<g opacity="0.8">
<path opacity="0.3" d="M28.43 101.19L27.24 99.62C26.97 99.26 20.62 90.82 20.62 83.63C20.62 82.39 20.71 81.24 20.89 80.19C19.29 79.37 18.16 77.82 17.88 76.03H15.57C15.31 76.71 14.85 77.3 14.25 77.73C14.3 78.19 14.33 78.68 14.33 79.19C14.33 83.22 10.84 87.86 10.69 88.06L9.48997 89.64L8.28997 88.06C8.13997 87.86 4.64997 83.22 4.64997 79.19C4.64997 78.68 4.67997 78.19 4.72997 77.73C4.13997 77.31 3.67997 76.72 3.40997 76.03H2.37997C1.04997 76.03 -0.0300293 74.95 -0.0300293 73.62V65.23C-0.0300293 61.59 1.59997 58.2 4.44997 55.93L14.9 47.63L14.88 23.35C14.88 23.26 14.88 23.16 14.89 23.07V21.16H15.01C15.36 17.62 16.52 13.54 18.22 9.94995C20.84 4.49995 24.1 1.08995 27.7 0.0899528C28.1 -0.0200472 28.79 -0.0300472 29.2 0.0899528C32.76 1.07995 36.01 4.48995 38.59 9.94995C40.28 13.52 41.45 17.6 41.81 21.16H41.91L41.93 22.66V47.63L52.37 55.93C55.22 58.2 56.85 61.59 56.85 65.23V73.61C56.85 74.94 55.77 76.02 54.44 76.02H53.41C53.15 76.7 52.69 77.3 52.09 77.72C52.15 78.18 52.17 78.66 52.17 79.18C52.17 83.21 48.68 87.85 48.53 88.05L47.33 89.63L46.13 88.05C45.98 87.85 42.49 83.21 42.49 79.18C42.49 78.67 42.52 78.18 42.57 77.72C41.97 77.3 41.51 76.71 41.24 76.02H38.93C38.65 77.82 37.52 79.37 35.92 80.18C36.1 81.23 36.19 82.38 36.19 83.62C36.19 90.81 29.84 99.25 29.57 99.61L28.38 101.18L28.43 101.19ZM12.81 73.03H20.81V75.18C20.81 76.43 21.7 77.51 22.93 77.75L24.51 78.06L24.08 79.62C23.77 80.75 23.61 82.1 23.61 83.63C23.61 88.07 26.67 93.39 28.42 96.07C30.17 93.38 33.23 88.06 33.23 83.63C33.23 82.1 33.07 80.75 32.76 79.62L32.33 78.07L33.91 77.76C35.13 77.52 36.02 76.44 36.02 75.19V73.04H44.02V74.73C44.02 75.05 44.25 75.33 44.57 75.4L46.13 75.72L45.72 77.26C45.57 77.81 45.5 78.46 45.5 79.2C45.5 80.84 46.44 82.89 47.33 84.42C48.22 82.89 49.16 80.84 49.16 79.2C49.16 78.45 49.08 77.81 48.94 77.28L48.51 75.72L50.1 75.41C50.41 75.35 50.64 75.07 50.64 74.74V73.05H53.83V65.26C53.83 62.54 52.61 60 50.48 58.3L38.91 49.11L38.89 22.75C38.76 19.28 37.62 14.98 35.86 11.27C33.68 6.66995 31.12 3.81995 28.45 3.02995H28.41C25.74 3.82995 23.1 6.73995 20.97 11.26C19.2 15 18.07 19.29 17.94 22.74L17.92 23.22V49.1L6.33997 58.3C4.20997 60 2.98997 62.53 2.98997 65.25V73.05H6.17997V74.74C6.17997 75.06 6.40997 75.34 6.72997 75.41L8.28997 75.73L7.87997 77.27C7.72997 77.82 7.65997 78.47 7.65997 79.21C7.65997 80.85 8.59997 82.9 9.48997 84.43C10.38 82.9 11.32 80.85 11.32 79.21C11.32 78.47 11.25 77.81 11.1 77.27L10.69 75.73L12.25 75.41C12.57 75.35 12.8 75.06 12.8 74.74V73.05L12.81 73.03ZM28.52 2.97995H28.49C28.49 2.97995 28.51 2.97995 28.52 2.97995Z" fill="white"/>
<path opacity="0.3" d="M37.36 20.69H19.49V20.05C19.49 17.82 21.29 16.01 23.52 16.01H33.31C35.54 16.01 37.35 17.82 37.35 20.05V20.69H37.36Z" fill="white"/>
</g>
</g>
<defs>
<clipPath id="clip0_122_177">
<rect width="56.85" height="101.19" fill="white"/>
</clipPath>
</defs>
</svg>
