<svg width="57" height="57" viewBox="0 0 57 57" fill="none" xmlns="http://www.w3.org/2000/svg">
<g clip-path="url(#clip0_122_201)">
<g opacity="0.8">
<path opacity="0.3" d="M45.7899 30.5686C45.4099 30.8986 44.8299 30.8586 44.5099 30.4686C44.1799 30.0887 44.2199 29.5087 44.5999 29.1787C48.6299 25.7289 49.0799 19.6391 45.6199 15.6293C45.2899 15.2493 45.3299 14.6693 45.7199 14.3394C46.0999 14.0094 46.6799 14.0494 47.0099 14.4394C51.1299 19.2191 50.5799 26.4588 45.7899 30.5686Z" fill="#DCDDDE"/>
<path opacity="0.3" d="M50.0199 6.72965C41.0499 -2.23996 26.4999 -2.23996 17.5299 6.72965C9.27988 14.9793 8.61988 27.9287 15.5399 36.9383L0.889883 51.5877C-0.290117 52.7676 -0.290117 54.6775 0.889883 55.8675C2.06988 57.0474 3.97988 57.0474 5.16988 55.8675L19.8199 41.2181C28.8299 48.1378 41.7799 47.4678 50.0299 39.2282C58.9999 30.2586 58.9999 15.7092 50.0299 6.72965H50.0199ZM47.9899 37.1883C40.1399 45.038 27.4099 45.038 19.5599 37.1883C11.7099 29.3386 11.7099 16.6192 19.5599 8.75956C27.4099 0.909902 40.1299 0.909902 47.9899 8.75956C55.8399 16.6092 55.8399 29.3386 47.9899 37.1883Z" fill="#DCDDDE"/>
<path opacity="0.3" d="M45.7899 30.5686C45.4099 30.8986 44.8299 30.8586 44.5099 30.4686C44.1799 30.0887 44.2199 29.5087 44.5999 29.1787C48.6299 25.7289 49.0799 19.6391 45.6199 15.6293C45.2899 15.2493 45.3299 14.6693 45.7199 14.3394C46.0999 14.0094 46.6799 14.0494 47.0099 14.4394C51.1299 19.2191 50.5799 26.4588 45.7899 30.5686Z" fill="#DCDDDE"/>
<path opacity="0.3" d="M45.7899 30.5686C45.4099 30.8986 44.8299 30.8586 44.5099 30.4686C44.1799 30.0887 44.2199 29.5087 44.5999 29.1787C48.6299 25.7289 49.0799 19.6391 45.6199 15.6293C45.2899 15.2493 45.3299 14.6693 45.7199 14.3394C46.0999 14.0094 46.6799 14.0494 47.0099 14.4394C51.1299 19.2191 50.5799 26.4588 45.7899 30.5686Z" fill="#DCDDDE"/>
</g>
</g>
<defs>
<clipPath id="clip0_122_201">
<rect width="56.75" height="56.75" fill="white"/>
</clipPath>
</defs>
</svg>
