<svg xmlns="http://www.w3.org/2000/svg" width="242.003" height="674.501" viewBox="0 0 242.003 674.501"><g id="home-businessgames-pixpik" transform="translate(-0.875 -22.658)"><path id="Trazado_1" data-name="Trazado 1" d="M153.563,71.981l-2.769,1.566L149.3,70.885l2.78-1.578ZM145.138,76.8c-1.818,1.084-3.611,2.193-5.5,3.325l-1.589-2.59c1.865-1.2,3.707-2.265,5.548-3.349ZM134.2,83.559c-1.794,1.2-3.611,2.313-5.392,3.506l-1.7-2.542c1.829-1.2,3.61-2.41,5.44-3.53Zm-10.832,7.12q-2.647,1.807-5.308,3.686l-1.673-2.458q2.673-1.879,5.344-3.711Zm-10.555,7.445q-2.6,1.892-5.2,3.855l-1.854-2.409c1.745-1.313,3.49-2.614,5.235-3.879ZM102.5,105.907q-2.552,1.976-5.078,4.011l-1.938-2.409q2.539-2.036,5.115-4.048Zm-10,8.132Q90,116.086,87.5,118.207l-2.022-2.289q2.479-2.133,4.983-4.205Zm-9.8,8.433q-2.407,2.144-4.814,4.337L75.778,124.6q2.407-2.217,4.814-4.385Zm-9.484,8.746q-2.323,2.229-4.621,4.494l-2.2-2.12q2.323-2.289,4.67-4.542Zm-9.147,9.072q-2.239,2.3-4.429,4.638L57.412,142.9c1.468-1.59,2.961-3.156,4.477-4.722Zm-8.762,9.421q-2.142,2.409-4.224,4.819L48.674,152.6c1.4-1.638,2.828-3.264,4.273-4.819Zm-8.34,9.746c-1.36,1.651-2.684,3.325-4,5.012l-2.479-1.807q1.986-2.566,4.032-5.072Zm-7.859,10.12q-1.9,2.579-3.719,5.205L32.8,173.107c1.2-1.759,2.491-3.518,3.767-5.265ZM31.8,180.082q-1.745,2.675-3.418,5.374L25.7,183.95c1.119-1.832,2.287-3.615,3.466-5.458Zm-6.668,10.843q-1.589,2.771-3.069,5.566l-2.792-1.337c1.011-1.892,2.046-3.783,3.117-5.65Zm-5.945,11.228c-.927,1.9-1.805,3.819-2.66,5.747l-2.889-1.133q1.3-2.927,2.708-5.843Zm-5.1,11.6q-1.2,2.928-2.2,5.9L8.9,218.767c.7-2.024,1.456-4.024,2.251-6.024ZM9.92,225.634q-.915,3-1.7,6.023l-3.057-.626c.493-2.06,1.107-4.108,1.7-6.156ZM173.036,284.75a56.059,56.059,0,0,0-6.018-1.2l.59-3.06a59.515,59.515,0,0,1,6.4,1.2Zm11.53,4.229q-2.768-1.346-5.657-2.41l1.2-2.9a64.3,64.3,0,0,1,5.921,2.53Zm-23.758-5.951a57.554,57.554,0,0,0-6.271.132l-.1-3.1a64.176,64.176,0,0,1,6.608-.133ZM6.863,237.765q-.65,3.048-1.131,6.133l-3.117-.338c.337-2.1.71-4.192,1.2-6.276Zm188.2,57.551a59.348,59.348,0,0,0-5.09-3.41l1.745-2.65c1.817,1.1,3.61,2.289,5.307,3.542Zm-46.661-11.4c-2.034.361-4.08.807-6.162,1.373l-.71-2.975q3.251-.88,6.451-1.446Zm55.844,19.36q-2.166-2.167-4.465-4.156l2.155-2.41q2.406,2.061,4.621,4.313Zm-68.1-16.059q-2.912,1.049-5.861,2.409l-1.2-2.795q3.069-1.4,6.089-2.493Zm76.112,25.3q-1.854-2.41-3.839-4.723l2.407-2.072q2.034,2.409,3.959,4.819ZM4.866,250.078c-.229,2.048-.4,4.108-.518,6.18H1.195c.12-2.12.3-4.228.53-6.337ZM219.1,322.639q-1.576-2.639-3.274-5.168l2.66-1.771c1.2,1.723,2.287,3.494,3.358,5.289Zm-94.55-30.19c-.963.53-1.937,1.072-2.912,1.638s-1.818,1.072-2.72,1.626l-1.6-2.6c.927-.566,1.853-1.12,2.8-1.674s2-1.205,3-1.687ZM4.155,262.463c0,2.048,0,4.1.132,6.156l-3.165.277c-.1-2.12-.132-4.217-.12-6.313ZM224.8,333.482q-1.289-2.782-2.708-5.494l2.828-1.506c.975,1.844,1.89,3.723,2.768,5.627ZM113.689,299.207q-2.588,1.783-5.03,3.7l-1.9-2.494c1.673-1.3,3.406-2.578,5.163-3.807ZM4.733,274.787c.2,2.012.457,4.048.77,6.024l-3.129.59c-.325-2.084-.578-4.156-.782-6.228Zm224.652,70.08c-.674-1.928-1.384-3.843-2.154-5.747l2.949-1.2q1.2,2.916,2.2,5.88ZM103.82,306.845c-1.564,1.374-3.093,2.771-4.585,4.217l-2.178-2.145q2.3-2.241,4.729-4.349Zm129.007,49.828q-.7-2.976-1.576-5.939l3.081-.928c.59,2.012,1.119,4.048,1.613,6.024ZM6.563,286.931c.409,1.976.867,3.963,1.384,5.939l-3.069.892c-.518-2.036-1-4.06-1.408-6.1Zm88.279,28.612c-1.42,1.53-2.792,3.085-4.128,4.687l-2.407-1.892c1.372-1.638,2.78-3.252,4.236-4.819ZM9.668,298.8q.9,2.818,2.01,5.758l-2.973,1.2q-1.083-2.94-2.01-5.891ZM235.078,368.8c-.265-2.024-.59-4.06-.975-6.084l3.117-.687c.385,2.085.722,4.169.987,6.241Zm-148.2-43.7Q85,327.6,83.264,330.193l-2.612-1.626c1.2-1.771,2.407-3.518,3.719-5.217ZM13.9,310.291q1.2,2.771,2.479,5.53l-2.876,1.457q-1.348-2.843-2.54-5.65Zm222.089,70.838c0-2.048-.121-4.108-.277-6.192l3.153-.361c.157,2.132.253,4.264.289,6.373Zm-156.1-45.78q-1.625,2.65-3.117,5.386l-2.768-1.374c1.023-1.867,2.094-3.7,3.189-5.518Zm-60.73-14c.927,1.759,1.914,3.518,2.937,5.277l-2.756,1.626q-1.565-2.7-3-5.385ZM235.379,393.5c.241-2.036.421-4.108.517-6.216h3.166c-.109,2.18-.289,4.325-.554,6.445ZM25.314,331.892c1.083,1.686,2.2,3.385,3.37,5.072l-2.648,1.819c-1.2-1.723-2.335-3.458-3.43-5.168ZM73.9,346.349q-1.372,2.758-2.636,5.614l-2.889-1.133c.867-1.939,1.757-3.843,2.7-5.734ZM32.234,342c1.2,1.638,2.479,3.276,3.791,4.915L33.5,348.891c-1.36-1.723-2.563-3.4-3.839-5.108ZM232.9,405.682q.866-2.9,1.492-6.024l3.093.47q-.649,3.218-1.552,6.265ZM68.858,357.613q-1.131,2.854-2.178,5.771l-2.973-.9c.7-1.988,1.444-3.939,2.214-5.879Zm-28.993-6.024q1.962,2.337,4.068,4.663l-2.407,2.108q-2.13-2.409-4.128-4.735Zm8.244,9.06c1.384,1.458,2.8,2.9,4.261,4.361l-2.311,2.217c-1.468-1.47-2.913-2.94-4.309-4.422Zm179.977,56.418a51.209,51.209,0,0,0,2.72-5.59l2.924,1.06a55.147,55.147,0,0,1-2.888,5.927ZM56.846,369.419,54.6,371.684c1.48,1.41,2.985,2.8,4.525,4.193l1.2-1.313,2.576.578q.831-2.964,1.757-5.867l-3.021-.795c-.445,1.409-.866,2.819-1.288,4.24C59.193,371.624,58.014,370.528,56.846,369.419Zm9.063,8.2c1.565,1.361,3.153,2.71,4.814,4.06l-2.106,2.409c-1.637-1.373-3.262-2.735-4.814-4.108ZM220.6,427.018a42.63,42.63,0,0,0,4.1-4.7l2.515,1.77a46.7,46.7,0,0,1-4.429,5.06ZM61.384,381.129q-.734,2.964-1.384,6.024l-3.081-.506c.433-2.048.891-4.072,1.4-6.024Zm14.081,4.41c1.577,1.2,3.189,2.518,4.814,3.783l-2.01,2.469c-1.661-1.277-3.274-2.542-4.814-3.807Zm9.845,7.554,2.576,1.879c.891.65,1.769,1.289,2.66,1.915l-1.938,2.53-2.672-1.927c-.879-.639-1.745-1.265-2.6-1.9ZM210.55,434.21a41.822,41.822,0,0,0,5.308-3.2l1.793,2.469a44.412,44.412,0,0,1-5.765,3.482ZM95.757,400.574q2.6,1.8,5.139,3.494l-1.866,2.578q-2.563-1.723-5.163-3.518Zm-36.949-7.4c-.373,2.012-.71,4.036-1.035,6.024l-3.117-.326c.313-2.072.662-4.12,1.035-6.156Zm47.107,14.2c1.793,1.2,3.61,2.277,5.295,3.361l-1.781,2.638q-2.671-1.638-5.332-3.337Zm92.8,30.757a48.489,48.489,0,0,0,6.018-1.53l.891,2.927a51.762,51.762,0,0,1-6.391,1.639Zm-82.057-24.1c1.793,1.06,3.611,2.1,5.308,3.084l-1.673,2.7c-1.769-1-3.611-2.048-5.368-3.121Zm10.567,6.024q2.925,1.578,5.753,3l-1.553,2.771q-2.876-1.445-5.813-3.048Zm58.973,19c2.191.061,4.3,0,6.331-.132l.1,3.084c-2.142.157-4.356.2-6.655.145ZM138.53,425.813q2.781,1.3,5.476,2.482l-1.384,2.831c-1.829-.8-3.682-1.626-5.56-2.518Zm35.24,11.939c2.166.386,4.272.7,6.318.916l-.481,3.072c-2.118-.217-4.309-.542-6.547-.952Zm-23.758-6.975c1.962.771,3.875,1.482,5.765,2.132l-1.2,2.928c-1.926-.675-3.876-1.4-5.874-2.181ZM56.918,405.224c-.265,2.024-.505,4.072-.71,6.12l-3.141-.1c.2-2.084.445-4.156.71-6.2ZM161.7,434.764q3.118.94,6.1,1.663l-.89,3q-3.045-.747-6.247-1.687ZM55.655,417.416c-.156,2.036-.3,4.072-.409,6.12H52.092c.108-2.072.253-4.132.409-6.18ZM55,429.7c0,2.024-.108,4.06-.132,6.1l-3.165.1c0-2.06.072-4.108.145-6.156Zm-.144,12.228c0,2.024,0,4.048.108,6.023l-3.153.217c0-2.048-.1-4.1-.12-6.144Zm.349,12.18c.1,2.024.2,4.06.337,6.108l-3.153.337c-.132-2.06-.253-4.12-.349-6.168Zm.806,12.167c.168,2.012.349,4.036.566,6.024l-3.153.446c-.2-2.048-.4-4.084-.566-6.12Zm1.2,12.12c.241,2,.493,4.012.77,6.024l-3.129.542c-.277-2.024-.542-4.048-.782-6.024Zm1.649,12.048c.313,2,.638,3.987.975,6.023l-3.117.639c-.337-2-.674-4.024-.987-6.024Zm2.046,11.963c.373,2,.758,3.987,1.2,6.023l-3.105.735c-.409-2-.794-4.012-1.2-6.023Zm2.407,11.9c.433,1.976.891,3.952,1.348,5.916l-3.081.819c-.469-1.976-.915-3.964-1.36-5.951Zm2.792,11.807q.734,2.94,1.528,5.867l-3.009.94c-.53-1.976-1.047-3.94-1.541-5.916Zm3.141,11.7q.83,2.928,1.709,5.819l-3.033,1q-.879-2.928-1.721-5.867Zm3.5,11.6q.9,2.891,1.865,5.746l-3,1.084q-.975-2.891-1.89-5.794ZM76.669,560.9q1.011,2.855,2.046,5.686l-2.973,1.205q-1.047-2.856-2.07-5.735Zm4.188,11.336q1.1,2.82,2.239,5.626l-2.949,1.205q-1.2-2.77-2.275-5.626Zm4.549,11.192c.794,1.868,1.6,3.711,2.407,5.554L84.9,590.321c-.818-1.856-1.637-3.723-2.407-5.6Zm4.922,11.048c.843,1.831,1.7,3.614,2.576,5.421l-2.864,1.434q-1.312-2.71-2.6-5.47ZM95.6,605.32c.915,1.783,1.841,3.614,2.78,5.324l-2.816,1.53c-.951-1.783-1.878-3.614-2.8-5.385Zm5.669,10.637c.987,1.771,1.974,3.518,2.985,5.241l-2.756,1.626c-1.023-1.746-2.022-3.517-3.021-5.3Zm6.018,10.385c1.059,1.735,2.13,3.458,3.225,5.144l-2.7,1.735q-1.661-2.565-3.261-5.2Zm6.487,10.192c1.131,1.687,2.274,3.337,3.43,4.976l-2.612,1.843c-1.2-1.65-2.335-3.337-3.478-5.036Zm6.98,9.843q1.806,2.421,3.611,4.759l-2.528,1.963q-1.876-2.409-3.719-4.818Zm7.474,9.445q1.926,2.313,3.9,4.518l-2.408,2.1q-1.984-2.241-3.959-4.578Zm8.016,8.988q2.082,2.168,4.176,4.228l-2.275,2.241c-1.432-1.4-2.84-2.831-4.248-4.313Zm8.617,8.433q2.238,2.023,4.5,3.879l-2.094,2.409c-1.54-1.277-3.081-2.59-4.6-3.963Zm9.279,7.65q2.407,1.808,4.814,3.457l-1.865,2.579c-1.673-1.133-3.322-2.3-4.983-3.542Zm10,6.686q2.611,1.554,5.259,2.88l-1.552,2.77c-1.818-.915-3.611-1.915-5.416-2.975Zm10.747,5.434c.915.385,1.842.746,2.756,1.1l-1.2,2.891c-.963-.361-1.914-.735-2.865-1.132Z" fill="#053e62" stroke="#fff" stroke-miterlimit="10" stroke-width="0.25"></path><g id="Grupo_1" data-name="Grupo 1" transform="translate(1.362 13.967)"><path id="Trazado_2" data-name="Trazado 2" d="M189.763,75.287l-.064-.129-.063-.129c-.845-1.555-2.739-2.192-5.842-.657-3.186,1.576-5.63,6.493-5.63,6.493s5.384,1.046,8.571-.53C189.833,78.791,190.481,76.9,189.763,75.287Z" transform="translate(-4.963 -13.605)" fill="#d6803c"></path><path id="Trazado_3" data-name="Trazado 3" d="M190.524,78.012,188.2,73.3a2.167,2.167,0,0,1,.98-2.9l.3-.151,4.243,8.6-.3.151a2.163,2.163,0,0,1-2.9-.985Z" transform="translate(-7.023 -12.923)" fill="#053e62"></path><path id="Trazado_4" data-name="Trazado 4" d="M168.63,32.44c.719,1.617.073,3.51-3.031,5.045-3.186,1.576-8.57.53-8.57.53s2.443-4.917,5.63-6.493c3.1-1.535,5-.9,5.842.657-.715-1.29,2.591-1.282,0,0" transform="translate(-0.526 -4.609)" fill="#d6803c"></path><path id="Trazado_5" data-name="Trazado 5" d="M169.4,35.175l-2.326-4.716a2.166,2.166,0,0,1,.98-2.9l.3-.151,4.243,8.6-.3.151a2.163,2.163,0,0,1-2.9-.985Z" transform="translate(-2.587 -3.929)" fill="#053e62"></path><path id="Trazado_6" data-name="Trazado 6" d="M176.5,53.581l-.12-.244-.12-.244c-1.6-2.943-5.192-4.155-11.071-1.247-6.038,2.985-10.67,12.3-10.67,12.3s10.2,1.977,16.237-1.008C176.642,60.231,177.864,56.646,176.5,53.581Z" transform="translate(0 -8.711)" fill="#d6803c"></path><path id="Trazado_7" data-name="Trazado 7" d="M200.068,25.837l-8.386-3.966-7.537-3.558a10.27,10.27,0,0,0-8.979.082l-7.486,3.7a.907.907,0,0,0-.409,1.213L175.1,39.184a.9.9,0,0,0,1.211.412l24.163-11.949Z" transform="translate(-2.656 -1.811)" fill="#053e62"></path><path id="Trazado_8" data-name="Trazado 8" d="M210.988,47.055,186.83,59a.906.906,0,0,0-.41,1.213l7.83,15.875a.9.9,0,0,0,1.211.412l7.486-3.7a10.286,10.286,0,0,0,5.522-7.089l1.759-8.155,1.952-9.078Z" transform="translate(-6.677 -8.054)" fill="#053e62"></path><path id="Trazado_9" data-name="Trazado 9" d="M231.986,32.607a32.883,32.883,0,0,0,9.37-8.161c3.384-4.281,4.973-8.3,4.36-11.558a1.921,1.921,0,0,0-.3-.6c-2.208-2.466-6.378-3.677-11.83-3.589a32.794,32.794,0,0,0-12.167,2.491l-.006-.013-.307.152c-.1.051-.22.094-.322.145l.006.011L175.143,34.055,185.721,55.5,231.992,32.62Z" transform="translate(-4.329 0)" fill="#dcddde"></path><path id="Trazado_10" data-name="Trazado 10" d="M177.954,58.757l-4.4-8.93a4.109,4.109,0,0,1,1.857-5.5l.578-.286,8.039,16.3-.578.286a4.1,4.1,0,0,1-5.491-1.867Z" transform="translate(-3.905 -7.421)" fill="#053e62"></path><path id="Trazado_11" data-name="Trazado 11" d="M243.6,15.545l4.32,8.758a4.027,4.027,0,0,1-1.821,5.39l-.567.28-7.882-15.981.567-.28a4.019,4.019,0,0,1,5.383,1.832Z" transform="translate(-17.452 -0.967)" fill="#053e62"></path></g></g></svg>