<svg xmlns="http://www.w3.org/2000/svg" width="278" height="94" viewBox="0 0 278 94" fill="none"><path d="M118.303 48.2056C118.303 61.2532 108.093 70.8678 95.5625 70.8678C83.032 70.8678 72.8217 61.2532 72.8217 48.2056C72.8217 35.0661 83.032 25.5435 95.5625 25.5435C108.093 25.5435 118.303 35.0661 118.303 48.2056ZM108.348 48.2056C108.348 40.0522 102.431 34.4735 95.5625 34.4735C88.6942 34.4735 82.7765 40.0522 82.7765 48.2056C82.7765 56.2774 88.6942 61.9378 95.5625 61.9378C102.431 61.9378 108.348 56.2672 108.348 48.2056Z" fill="white"></path><path d="M167.362 48.2056C167.362 61.2532 157.152 70.8678 144.621 70.8678C132.091 70.8678 121.88 61.2532 121.88 48.2056C121.88 35.0763 132.091 25.5435 144.621 25.5435C157.152 25.5435 167.362 35.0661 167.362 48.2056ZM157.407 48.2056C157.407 40.0522 151.49 34.4735 144.621 34.4735C137.753 34.4735 131.835 40.0522 131.835 48.2056C131.835 56.2774 137.753 61.9378 144.621 61.9378C151.49 61.9378 157.407 56.2672 157.407 48.2056Z" fill="white"></path><path d="M214.377 26.9126V67.5982C214.377 84.3343 204.504 91.1698 192.832 91.1698C181.845 91.1698 175.232 83.8235 172.738 77.8156L181.405 74.2089C182.949 77.8974 186.73 82.25 192.822 82.25C200.293 82.25 204.923 77.6419 204.923 68.9674V65.708H204.575C202.347 68.4565 198.055 70.8576 192.638 70.8576C181.303 70.8576 170.919 60.9876 170.919 48.2874C170.919 35.4952 181.303 25.5435 192.638 25.5435C198.044 25.5435 202.337 27.9445 204.575 30.6113H204.923V26.9228H214.377V26.9126ZM205.628 48.2874C205.628 40.3076 200.303 34.4735 193.527 34.4735C186.659 34.4735 180.904 40.3076 180.904 48.2874C180.904 56.1854 186.659 61.9378 193.527 61.9378C200.303 61.9378 205.628 56.1854 205.628 48.2874Z" fill="white"></path><path d="M229.963 3.06543V69.4785H220.254V3.06543H229.963Z" fill="white"></path><path d="M267.8 55.6643L275.527 60.8139C273.033 64.5023 267.023 70.8576 256.639 70.8576C243.761 70.8576 234.143 60.9058 234.143 48.1954C234.143 34.7186 243.843 25.5332 255.525 25.5332C267.289 25.5332 273.043 34.8923 274.924 39.9499L275.956 42.5247L245.652 55.0717C247.972 59.6184 251.58 61.9378 256.639 61.9378C261.708 61.9378 265.224 59.4447 267.8 55.6643ZM244.017 47.5108L264.274 39.1019C263.16 36.2717 259.807 34.2997 255.862 34.2997C250.803 34.2997 243.761 38.7647 244.017 47.5108Z" fill="white"></path><path d="M36.0684 42.31V32.6954H68.4779C68.7948 34.3711 68.9583 36.3532 68.9583 38.4989C68.9583 45.7124 66.9857 54.6322 60.6285 60.9874C54.4451 67.4243 46.5445 70.8574 36.0787 70.8574C16.68 70.8574 0.36792 55.0613 0.36792 35.6687C0.36792 16.2761 16.68 0.47998 36.0787 0.47998C46.8103 0.47998 54.4553 4.68955 60.1992 10.1763L53.4128 16.9606C49.2939 13.0985 43.7134 10.0945 36.0684 10.0945C21.9027 10.0945 10.8236 21.5074 10.8236 35.6687C10.8236 49.83 21.9027 61.2428 36.0684 61.2428C45.2567 61.2428 50.4897 57.5543 53.842 54.203C56.5607 51.4852 58.3493 47.6026 59.0545 42.2998L36.0684 42.31Z" fill="white"></path></svg>