<svg xmlns="http://www.w3.org/2000/svg" width="398" height="93" viewBox="0 0 398 93" fill="none"><path fill-rule="evenodd" clip-rule="evenodd" d="M252.575 85.4995C254.112 81.8712 255.689 78.2637 257.173 74.62C260.915 65.4314 264.777 56.2883 267.959 46.8862C268.232 46.0807 268.63 45.7264 269.524 45.7445C272.053 45.7961 274.584 45.8087 277.112 45.7403C278.148 45.7124 278.601 46.1445 278.943 47.0476C282.938 57.5709 286.96 68.085 290.982 78.5986C292.494 82.5548 294.002 86.5134 295.561 90.451C296.009 91.583 295.875 92.0006 294.523 91.955C291.827 91.8643 289.125 91.8699 286.43 91.9536C285.276 91.989 284.772 91.6299 284.425 90.5133C283.549 87.6993 282.463 84.9508 281.543 82.1502C281.232 81.2043 280.784 80.8415 279.751 80.8541C275.255 80.9099 270.757 80.9159 266.26 80.8513C265.159 80.8364 264.648 81.2647 264.291 82.2158C263.235 85.0331 262.086 87.8165 261.061 90.6445C260.726 91.5672 260.31 91.9657 259.264 91.9522C254.767 91.8941 250.27 91.909 245.773 91.9439C244.9 91.9508 244.351 91.6848 243.822 90.9654C240.644 86.6431 237.417 82.3572 234.185 78.074C232.947 76.4328 231.603 75.0199 229.223 75.1474C228.116 75.2064 227.794 75.5064 227.807 76.5923C227.861 81.1122 227.782 85.6326 227.859 90.1515C227.882 91.483 227.607 92.0345 226.129 91.9625C223.605 91.8388 221.07 91.8918 218.542 91.9462C217.513 91.9685 217.044 91.7551 217.047 90.5817C217.083 76.1849 217.072 61.7876 217.067 47.3908C217.067 46.6351 217.005 46.0049 218.141 45.9622C223.636 45.7571 229.116 45.2083 234.625 45.3129C238.579 45.3878 242.318 46.2277 245.631 48.44C251.95 52.6599 252.969 62.1955 247.729 67.6915C246.41 69.0746 245.018 70.3717 243.227 71.1465C242.61 71.4129 242.339 71.6892 242.827 72.3631C245.94 76.6625 249.022 80.9843 252.12 85.294C252.172 85.367 252.307 85.3819 252.575 85.4995Z" fill="white"></path><path fill-rule="evenodd" clip-rule="evenodd" d="M397.718 38.338C397.294 44.0396 396.06 49.5505 393.689 54.7759C390.56 61.6704 385.802 67.3237 379.968 72.0989C370.819 79.5877 360.944 85.8762 349.611 89.6362C345.619 90.9612 341.541 91.9973 337.267 91.8648C336.869 91.1867 337.4 90.6998 337.659 90.1892C343.797 78.0795 347.945 65.3244 350.271 51.9758C350.385 51.3224 350.46 50.6513 350.775 50.0449C350.881 49.89 351.011 49.7603 351.162 49.651C355.803 47.2387 360.731 45.5282 365.683 43.8982C374.184 41.1009 382.932 39.4025 391.811 38.3301C393.203 38.1622 394.607 38.1338 395.995 37.9106C396.597 37.8143 397.24 37.8162 397.718 38.338Z" fill="#96005B"></path><path fill-rule="evenodd" clip-rule="evenodd" d="M397.718 38.3382C390.812 38.6638 384.021 39.7809 377.28 41.2509C368.312 43.206 359.691 46.1717 351.346 49.9521C350.843 49.5331 350.874 48.9713 350.956 48.4137C352.428 38.3345 353.568 28.2079 355.319 18.1668C355.447 17.7752 355.652 17.4446 356.053 17.2734C362.028 14.4696 368.112 11.9639 374.548 10.3622C381.311 8.67822 388.172 7.77925 395.139 7.61462C395.794 7.59927 396.052 7.78903 396.136 8.40383C397.491 18.3393 398.521 28.2907 397.718 38.3382Z" fill="#D2742E"></path><path fill-rule="evenodd" clip-rule="evenodd" d="M356.053 17.2737C355.978 17.4792 355.904 17.6843 355.829 17.8899C353.505 19.6543 350.844 20.8825 348.424 22.5046C330.352 34.6161 318.56 51.1499 312.879 72.0175C312.719 72.6063 312.651 73.2276 312.301 73.7545C312.167 73.8801 312.018 73.9001 311.855 73.8183C310.727 71.4348 310.531 68.817 309.988 66.2936C308.625 59.9693 307.718 53.577 307.49 47.1048C306.953 31.8179 314.11 20.9862 327.155 13.4946C335.151 8.90215 343.655 5.49467 352.346 2.49411C354.718 1.67514 357.105 0.895702 359.778 0C358.252 5.87043 356.896 11.5204 356.053 17.2737Z" fill="#663387"></path><path fill-rule="evenodd" clip-rule="evenodd" d="M97.885 62.301C97.885 71.5724 97.885 80.3821 97.885 89.1917C97.885 91.9285 97.885 91.9281 95.1045 91.9276C93.3626 91.9276 91.6142 91.8374 89.8807 91.9569C88.3755 92.0606 87.8704 91.643 87.8835 90.0464C87.9618 80.1737 87.9224 70.2996 87.9224 60.4269C87.9224 56.0758 87.9594 51.7242 87.8985 47.3741C87.8812 46.1324 88.2818 45.7031 89.5392 45.7403C92.1216 45.8171 94.7095 45.8078 97.2928 45.7431C98.3811 45.7157 99.0398 46.1105 99.6278 47.0053C104.782 54.8466 109.976 62.6624 115.161 70.4837C115.469 70.9488 115.749 71.4473 116.132 71.845C116.621 72.3533 117.049 72.231 117.16 71.5111C117.227 71.0744 117.189 70.6209 117.189 70.1749C117.19 62.5885 117.222 55.0024 117.16 47.4159C117.149 46.0924 117.515 45.665 118.855 45.7347C120.928 45.8422 123.015 45.8357 125.09 45.738C126.476 45.6729 126.941 46.1114 126.922 47.5234C126.85 53.045 126.893 58.5676 126.893 64.0901C126.893 72.7923 126.861 81.4945 126.925 90.1962C126.935 91.6058 126.523 92.0266 125.126 91.9583C122.884 91.849 120.63 91.8736 118.385 91.9513C117.244 91.9908 116.622 91.643 116.024 90.6059C110.641 81.2666 104.787 72.2184 98.6843 63.3284C98.5334 63.1079 98.3568 62.9052 97.885 62.301Z" fill="white"></path><path fill-rule="evenodd" clip-rule="evenodd" d="M38.9683 79.5693C38.9688 82.8038 38.9468 86.0387 38.9838 89.2727C38.9931 90.107 38.78 90.6042 37.9142 90.8739C30.0135 93.3345 22.0561 93.9396 14.1333 91.185C6.3249 88.47 1.91073 82.7531 0.533348 74.7703C-0.337587 69.7235 -0.237796 64.6479 1.5528 59.7648C4.47434 51.7997 10.5681 47.4858 18.6384 45.7377C24.2824 44.515 29.9891 44.6504 35.6842 45.6456C36.7088 45.8242 36.9777 46.253 36.9571 47.184C36.9074 49.4135 36.8554 51.6467 36.9332 53.8743C36.9781 55.1672 36.7139 55.5197 35.3567 55.0858C31.3932 53.819 27.277 53.7009 23.1884 54.1069C17.3163 54.6891 13.4559 58.3915 12.2369 64.2568C11.3223 68.6558 11.4765 73.0059 13.0403 77.2328C15.3032 83.3521 21.6944 84.9858 26.5171 83.8943C27.9268 83.5748 28.5344 82.7703 28.5021 81.2695C28.4215 77.5347 28.519 73.7965 28.451 70.0612C28.4295 68.8813 28.6469 68.3623 29.9952 68.4218C32.5185 68.5334 35.0512 68.5037 37.5773 68.4311C38.7013 68.399 39.0114 68.785 38.9908 69.8654C38.9285 73.0999 38.9683 76.3348 38.9683 79.5693Z" fill="white"></path><path fill-rule="evenodd" clip-rule="evenodd" d="M49.0873 68.9329C49.0873 61.8464 49.1393 54.7584 49.0484 47.6728C49.0278 46.066 49.5731 45.7242 51.0676 45.7349C59.6121 45.7949 68.157 45.7972 76.7009 45.7316C78.1406 45.7205 78.5393 46.1651 78.463 47.5328C78.3543 49.48 78.3908 51.4388 78.4526 53.3898C78.4845 54.4069 78.1889 54.7887 77.1123 54.6654C72.0745 54.0902 67.0106 54.4371 61.9611 54.2873C60.5486 54.2455 59.9756 54.8845 59.9363 56.1173C59.8646 58.3468 59.8913 60.58 59.8416 62.8105C59.8177 63.8959 60.5753 63.7285 61.2279 63.7299C65.725 63.7359 70.223 63.7755 74.7187 63.7057C76.0057 63.6857 76.5435 63.9843 76.4386 65.3627C76.3158 66.9718 76.3346 68.6018 76.4339 70.2137C76.5098 71.4401 76.1584 71.8558 74.8579 71.833C70.3622 71.754 65.8637 71.8358 61.3675 71.78C60.2352 71.7661 59.7789 72.0181 59.8177 73.2431C59.9058 76.0307 59.8782 78.8229 59.8313 81.6123C59.8112 82.841 60.3073 83.2986 61.5348 83.28C67.0419 83.1968 72.5505 83.2037 78.0563 83.0772C78.9493 83.0563 79.1226 83.2758 79.1151 84.0385C79.094 86.2703 79.0851 88.5031 79.1188 90.7339C79.1315 91.5538 78.9132 91.9436 77.9912 91.9412C68.7159 91.9175 59.4406 91.9129 50.1648 91.9422C48.8629 91.9468 49.0896 91.1111 49.0892 90.3614C49.0845 83.2181 49.0864 76.0758 49.0873 68.9329Z" fill="white"></path><path fill-rule="evenodd" clip-rule="evenodd" d="M178.246 68.7842C178.246 61.6446 178.273 54.506 178.219 47.3669C178.21 46.1577 178.48 45.7266 179.79 45.735C188.555 45.7913 197.32 45.7833 206.085 45.7406C207.249 45.7345 207.666 46.0484 207.616 47.239C207.528 49.355 207.554 51.478 207.607 53.5963C207.629 54.5041 207.286 54.7757 206.423 54.6762C201.386 54.0967 196.327 54.3865 191.278 54.319C189.279 54.292 189.082 54.5078 189.045 56.5239C189.012 58.3083 189.101 60.0992 188.977 61.8758C188.877 63.3016 189.259 63.8109 190.809 63.7713C195.188 63.6593 199.573 63.7723 203.955 63.7053C205.166 63.6872 205.683 63.9434 205.595 65.2595C205.48 66.9812 205.5 68.7191 205.59 70.4435C205.65 71.5904 205.193 71.8336 204.134 71.8224C199.583 71.7741 195.031 71.8406 190.481 71.7755C189.28 71.7582 188.946 72.1415 188.98 73.2957C189.057 75.9149 189.081 78.5402 188.976 81.1575C188.912 82.7457 189.421 83.3331 191.075 83.2949C196.241 83.1764 201.411 83.2391 206.578 83.1182C207.899 83.0871 208.372 83.3856 208.293 84.7431C208.182 86.6331 208.202 88.5371 208.288 90.4299C208.34 91.5828 207.996 91.9604 206.792 91.9539C197.802 91.9074 188.812 91.905 179.823 91.9571C178.564 91.965 178.206 91.6251 178.217 90.3685C178.276 83.1745 178.246 75.9791 178.246 68.7842Z" fill="white"></path><path fill-rule="evenodd" clip-rule="evenodd" d="M311.856 73.8177C311.941 73.8452 312.027 73.8494 312.115 73.8308C314.159 71.5729 316.767 70.0029 319.206 68.2505C328.576 61.5202 338.431 55.5721 348.885 50.6332C349.515 50.3355 350.118 49.571 350.98 50.1695C350.417 55.2526 349.155 60.198 347.823 65.1137C345.302 74.4107 341.814 83.3477 337.267 91.8643C328.798 92.4638 321.601 89.938 316.232 83.2035C314.037 80.4518 312.379 77.375 311.856 73.8177Z" fill="#30688D"></path><path fill-rule="evenodd" clip-rule="evenodd" d="M152.783 45.7631C158.797 45.7627 164.812 45.792 170.827 45.7385C172.082 45.7273 172.657 45.9645 172.579 47.3792C172.455 49.6045 172.526 51.8414 172.554 54.0728C172.566 54.9648 172.416 55.2819 171.319 55.2001C167.683 54.9294 164.044 54.6653 160.388 54.6974C158.859 54.7104 158.346 55.281 158.279 56.772C157.79 67.5883 158.156 78.4088 158.046 89.2265C158.018 91.9285 158.042 91.9285 155.238 91.9285C153.327 91.9285 151.416 91.9285 149.505 91.9276C147.293 91.9271 147.291 91.9267 147.291 89.8013C147.29 78.9767 147.291 68.1515 147.29 57.3268C147.289 54.7532 147.262 54.7555 144.638 54.7183C141.096 54.6681 137.57 54.9471 134.048 55.2336C133.107 55.3103 133.002 54.9503 133.005 54.2309C133.017 51.9986 133.084 49.7636 132.98 47.5359C132.916 46.1742 133.294 45.711 134.739 45.7306C140.753 45.8096 146.768 45.7641 152.783 45.7631Z" fill="white"></path><path fill-rule="evenodd" clip-rule="evenodd" d="M229.324 60.9873C229.416 58.962 229.542 56.5721 229.623 54.1817C229.649 53.4436 229.848 52.8479 230.574 52.5726C233.758 51.3676 238.201 52.4772 239.786 54.776C242.57 58.8146 240.144 64.6604 235.3 65.4296C233.798 65.6681 232.29 65.6784 230.778 65.7439C229.542 65.7974 229.214 65.3175 229.308 64.1958C229.387 63.2545 229.324 62.3016 229.324 60.9873Z" fill="#053E62"></path><path fill-rule="evenodd" clip-rule="evenodd" d="M274.742 58.1694C276.494 62.3629 277.996 66.2903 279.359 70.2726C279.623 71.0441 279.261 71.1139 278.659 71.1115C276.025 71.1022 273.392 71.1018 270.759 71.1125C270.093 71.1148 269.63 71.0181 269.936 70.1777C271.373 66.2307 272.815 62.2857 274.742 58.1694Z" fill="#053E62"></path><path fill-rule="evenodd" clip-rule="evenodd" d="M350.979 50.1693C345.914 52.3063 341.113 54.9502 336.356 57.6773C328.246 62.3264 320.536 67.5644 313.144 73.2693C312.84 73.5046 312.46 73.6455 312.114 73.8306C313.115 68.4475 314.999 63.3435 317.231 58.3702C322.063 47.6008 328.934 38.2592 337.657 30.2807C342.869 25.5134 348.639 21.4887 354.883 18.1487C355.164 17.998 355.512 17.9729 355.83 17.8896C354.334 28.3 352.836 38.7103 351.346 49.1216C351.307 49.3936 351.344 49.675 351.346 49.9517C351.223 50.0229 351.102 50.0968 350.979 50.1693Z" fill="#44A78E"></path></svg>